<svg xmlns="http://www.w3.org/2000/svg" width="840" height="560" viewBox="0 0 840 560" fill="none">
    <defs>
      <linearGradient id="g" x1="0" y1="0" x2="1" y2="1">
        <stop offset="0%" stop-color="hsl(320 70% 55%)" stop-opacity="0.65"/>
        <stop offset="35%" stop-color="#0A0A0A"/>
        <stop offset="100%" stop-color="#050505"/>
      </linearGradient>
      <radialGradient id="r" cx="0" cy="0" r="1" gradientUnits="userSpaceOnUse" gradientTransform="translate(640 130) rotate(132) scale(410 310)">
        <stop stop-color="white" stop-opacity="0.32"/>
        <stop offset="1" stop-color="white" stop-opacity="0"/>
      </radialGradient>
      <filter id="blur"><feGaussianBlur stdDeviation="38"/></filter>
    </defs>
    <rect width="840" height="560" fill="#030303"/>
    <rect width="840" height="560" fill="url(#g)"/>
    <ellipse cx="620" cy="130" rx="220" ry="120" fill="url(#r)"/>
    <g opacity="0.42" filter="url(#blur)">
      <ellipse cx="190" cy="170" rx="110" ry="72" fill="hsl(320 85% 62%)"/>
      <ellipse cx="520" cy="380" rx="210" ry="110" fill="#111827"/>
      <ellipse cx="680" cy="220" rx="150" ry="90" fill="white" fill-opacity="0.12"/>
    </g>
    <g opacity="0.24" stroke="white">
      <path d="M0 70H840"/>
      <path d="M0 145H840"/>
      <path d="M0 220H840"/>
      <path d="M0 295H840"/>
      <path d="M0 370H840"/>
      <path d="M0 445H840"/>
    </g>
    <g opacity="0.56" stroke="white" stroke-width="1">
      <path d="M95 424L208 318L308 350L454 182L605 262L742 112"/>
    </g>
    <circle cx="454" cy="182" r="7" fill="#ef4444"/>
    <rect x="40" y="36" width="96" height="30" rx="15" fill="rgba(0,0,0,0.44)" stroke="rgba(255,255,255,0.14)"/>
    <text x="88" y="56" fill="white" font-family="Inter, Arial, sans-serif" font-size="12" text-anchor="middle" letter-spacing="2">LIVE FEED</text>
    <text x="48" y="500" fill="white" font-family="Space Grotesk, Arial, sans-serif" font-size="48" letter-spacing="-1">Broadcasting</text>
    <text x="50" y="530" fill="rgba(255,255,255,0.62)" font-family="Inter, Arial, sans-serif" font-size="14" letter-spacing="3">UNDERGROUND REFERENCE</text>
    </svg>